<?xml version="1.0" encoding="UTF-8" standalone="no"?>
<!DOCTYPE svg PUBLIC "-//W3C//DTD SVG 1.1//EN"
 "http://www.w3.org/Graphics/SVG/1.1/DTD/svg11.dtd">
<!-- Generated by graphviz version 2.43.0 (0)
 -->
<!-- Title: CameraPackageDependencies Pages: 1 -->
<svg width="549pt" height="250pt"
 viewBox="0.00 0.00 549.00 250.00" xmlns="http://www.w3.org/2000/svg" xmlns:xlink="http://www.w3.org/1999/xlink">
<g id="graph0" class="graph" transform="scale(1 1) rotate(0) translate(4 246)">
<title>CameraPackageDependencies</title>
<polygon fill="white" stroke="transparent" points="-4,4 -4,-246 545,-246 545,4 -4,4"/>
<text text-anchor="middle" x="270.5" y="-229.2" font-family="Segoe UI" font-size="11.00">com.timonipumba.camera — smallest dependency cluster (Graphviz)</text>
<g id="clust1" class="cluster">
<title>cluster_camera</title>
<path fill="none" stroke="#4f81bd" d="M280,-88C280,-88 521,-88 521,-88 527,-88 533,-94 533,-100 533,-100 533,-148 533,-148 533,-154 527,-160 521,-160 521,-160 280,-160 280,-160 274,-160 268,-154 268,-148 268,-148 268,-100 268,-100 268,-94 274,-88 280,-88"/>
<text text-anchor="middle" x="400.5" y="-147.2" font-family="Segoe UI" font-size="11.00">com.timonipumba.camera</text>
</g>
<g id="clust2" class="cluster">
<title>cluster_systems</title>
<path fill="none" stroke="#9bbb59" d="M12,-88C12,-88 203,-88 203,-88 209,-88 215,-94 215,-100 215,-100 215,-202 215,-202 215,-208 209,-214 203,-214 203,-214 12,-214 12,-214 6,-214 0,-208 0,-202 0,-202 0,-100 0,-100 0,-94 6,-88 12,-88"/>
<text text-anchor="middle" x="107.5" y="-201.2" font-family="Segoe UI" font-size="11.00">com.timonipumba.systems (dependents)</text>
</g>
<g id="clust3" class="cluster">
<title>cluster_app</title>
<path fill="none" stroke="#8064a2" d="M47.5,-8C47.5,-8 168.5,-8 168.5,-8 174.5,-8 180.5,-14 180.5,-20 180.5,-20 180.5,-68 180.5,-68 180.5,-74 174.5,-80 168.5,-80 168.5,-80 47.5,-80 47.5,-80 41.5,-80 35.5,-74 35.5,-68 35.5,-68 35.5,-20 35.5,-20 35.5,-14 41.5,-8 47.5,-8"/>
<text text-anchor="middle" x="108" y="-67.2" font-family="Segoe UI" font-size="11.00">com.timonipumba (wiring)</text>
</g>
<!-- CameraMode -->
<g id="node1" class="node">
<title>CameraMode</title>
<path fill="#ffffff" stroke="black" d="M513,-132C513,-132 460,-132 460,-132 454,-132 448,-126 448,-120 448,-120 448,-108 448,-108 448,-102 454,-96 460,-96 460,-96 513,-96 513,-96 519,-96 525,-102 525,-108 525,-108 525,-120 525,-120 525,-126 519,-132 513,-132"/>
<text text-anchor="middle" x="486.5" y="-117" font-family="Segoe UI" font-size="10.00">CameraMode</text>
<text text-anchor="middle" x="486.5" y="-106" font-family="Segoe UI" font-size="10.00">(enum)</text>
</g>
<!-- CameraModeManager -->
<g id="node2" class="node">
<title>CameraModeManager</title>
<path fill="#ffffff" stroke="black" d="M381,-132C381,-132 288,-132 288,-132 282,-132 276,-126 276,-120 276,-120 276,-108 276,-108 276,-102 282,-96 288,-96 288,-96 381,-96 381,-96 387,-96 393,-102 393,-108 393,-108 393,-120 393,-120 393,-126 387,-132 381,-132"/>
<text text-anchor="middle" x="334.5" y="-117" font-family="Segoe UI" font-size="10.00">CameraModeManager</text>
<text text-anchor="middle" x="334.5" y="-106" font-family="Segoe UI" font-size="10.00">(class)</text>
</g>
<!-- CameraModeManager&#45;&gt;CameraMode -->
<g id="edge1" class="edge">
<title>CameraModeManager&#45;&gt;CameraMode</title>
<path fill="none" stroke="#444444" d="M393.06,-114C408.4,-114 424.76,-114 439.39,-114"/>
<polygon fill="#444444" stroke="#444444" points="439.78,-116.8 447.78,-114 439.78,-111.2 439.78,-116.8"/>
<text text-anchor="middle" x="420.5" y="-116.8" font-family="Segoe UI" font-size="9.00">uses</text>
</g>
<!-- CameraSystem -->
<g id="node3" class="node">
<title>CameraSystem</title>
<path fill="#ffffff" stroke="black" d="M137.5,-186C137.5,-186 77.5,-186 77.5,-186 71.5,-186 65.5,-180 65.5,-174 65.5,-174 65.5,-162 65.5,-162 65.5,-156 71.5,-150 77.5,-150 77.5,-150 137.5,-150 137.5,-150 143.5,-150 149.5,-156 149.5,-162 149.5,-162 149.5,-174 149.5,-174 149.5,-180 143.5,-186 137.5,-186"/>
<text text-anchor="middle" x="107.5" y="-165.5" font-family="Segoe UI" font-size="10.00">CameraSystem</text>
</g>
<!-- CameraSystem&#45;&gt;CameraMode -->
<g id="edge4" class="edge">
<title>CameraSystem&#45;&gt;CameraMode</title>
<path fill="none" stroke="#444444" d="M149.83,-166.53C205.51,-163.99 307.48,-157.39 393,-141 408.39,-138.05 424.9,-133.65 439.65,-129.25"/>
<polygon fill="#444444" stroke="#444444" points="440.81,-131.82 447.64,-126.81 439.17,-126.46 440.81,-131.82"/>
<text text-anchor="middle" x="334.5" y="-160.8" font-family="Segoe UI" font-size="9.00">imports</text>
</g>
<!-- CameraSystem&#45;&gt;CameraModeManager -->
<g id="edge5" class="edge">
<title>CameraSystem&#45;&gt;CameraModeManager</title>
<path fill="none" stroke="#444444" d="M149.51,-158.16C182.52,-150.23 229.57,-138.94 267.82,-129.76"/>
<polygon fill="#444444" stroke="#444444" points="268.71,-132.43 275.84,-127.84 267.41,-126.98 268.71,-132.43"/>
<text text-anchor="middle" x="241.5" y="-141.8" font-family="Segoe UI" font-size="9.00">imports</text>
</g>
<!-- PlayerInputSystem -->
<g id="node4" class="node">
<title>PlayerInputSystem</title>
<path fill="#ffffff" stroke="black" d="M146,-132C146,-132 69,-132 69,-132 63,-132 57,-126 57,-120 57,-120 57,-108 57,-108 57,-102 63,-96 69,-96 69,-96 146,-96 146,-96 152,-96 158,-102 158,-108 158,-108 158,-120 158,-120 158,-126 152,-132 146,-132"/>
<text text-anchor="middle" x="107.5" y="-111.5" font-family="Segoe UI" font-size="10.00">PlayerInputSystem</text>
</g>
<!-- PlayerInputSystem&#45;&gt;CameraModeManager -->
<g id="edge3" class="edge">
<title>PlayerInputSystem&#45;&gt;CameraModeManager</title>
<path fill="none" stroke="#444444" d="M158.33,-113.33C187.4,-113.03 224.78,-112.78 258,-113 261.15,-113.02 264.38,-113.05 267.64,-113.08"/>
<polygon fill="#444444" stroke="#444444" points="267.76,-115.88 275.79,-113.16 267.82,-110.28 267.76,-115.88"/>
<text text-anchor="middle" x="241.5" y="-115.8" font-family="Segoe UI" font-size="9.00">imports</text>
</g>
<!-- TiledMapGame -->
<g id="node5" class="node">
<title>TiledMapGame</title>
<path fill="#ffffff" stroke="black" d="M138.5,-52C138.5,-52 76.5,-52 76.5,-52 70.5,-52 64.5,-46 64.5,-40 64.5,-40 64.5,-28 64.5,-28 64.5,-22 70.5,-16 76.5,-16 76.5,-16 138.5,-16 138.5,-16 144.5,-16 150.5,-22 150.5,-28 150.5,-28 150.5,-40 150.5,-40 150.5,-46 144.5,-52 138.5,-52"/>
<text text-anchor="middle" x="107.5" y="-31.5" font-family="Segoe UI" font-size="10.00">TiledMapGame</text>
</g>
<!-- TiledMapGame&#45;&gt;CameraModeManager -->
<g id="edge2" class="edge">
<title>TiledMapGame&#45;&gt;CameraModeManager</title>
<path fill="none" stroke="#444444" d="M150.56,-48.95C185.61,-61.42 235.94,-79.31 274.94,-93.18"/>
<polygon fill="#444444" stroke="#444444" points="274.11,-95.85 282.58,-95.9 275.98,-90.58 274.11,-95.85"/>
<text text-anchor="middle" x="241.5" y="-87.8" font-family="Segoe UI" font-size="9.00">imports</text>
</g>
</g>
</svg>
